<?xml version="1.0" encoding="utf-8"?>
<!-- Generator: Adobe Illustrator 22.1.0, SVG Export Plug-In . SVG Version: 6.00 Build 0)  -->
<svg version="1.1" xmlns="http://www.w3.org/2000/svg" xmlns:xlink="http://www.w3.org/1999/xlink" x="0px" y="0px"
	 viewBox="0 0 294.8 294.8" style="enable-background:new 0 0 294.8 294.8;" xml:space="preserve">
<style type="text/css">
	.st0{opacity:0.15;}
	.st1{display:none;opacity:0.15;}
	.st2{display:inline;}
</style>
<g id="Layer_1" class="st0">
	<path d="M282.4,185.1c-10.4-1.5-12.8,7.8-23.6,4.7c-10.5-3.1-13.7-22-13.7-22s6.4,9.2,13.6,11c13.2,3.2,18.3-6.4,28.9-2.4
		c1.6,0.6,2.8,1.6,3.7,2.9c2.3-10.2,3.5-20.9,3.5-31.8C294.8,66,228.8,0,147.4,0S0,66,0,147.4c0,14.5,2.1,28.4,6,41.6
		c16.8-53,66.3-91.4,124.9-91.4c0.9,0,1.8,0,2.6,0.1c-8.9-13.6-14.2-29.7-14.6-47.1c7.8,20.6,21.9,38.1,40,50.1c0.1,0,0.2,0,0.3,0.1
		c-2.5-8.2-3.9-17-3.9-26.1c0-8.7,1.3-17.2,3.6-25.2c5.1,34.1,27.1,62.2,56.8,77.2c0,0.6-0.1,1.3-0.2,2c0,0,0,0,0,0
		c-0.3,4.2-0.9,8.2-1.7,12.3c-1.7-0.9-3.7-1.5-5.9-1.5c-6.8,0-12.3,5.5-12.3,12.3c0,6.3,4.7,11.5,10.8,12.2
		c-2.6,5.7-5.7,11.2-9.2,16.3c-17.5-33.5-52.5-56.4-92.9-56.4c-44.7,0-82.8,28-97.9,67.4c18.7,59.9,74.6,103.4,140.7,103.4
		c67.5,0,124.4-45.3,141.9-107.2C287.3,186.5,285,185.5,282.4,185.1z M216.6,201.2c-4.6-8.5,0.3-16.6-1-29.3
		c-1.3-12.7-7.5-19.7-7.5-19.7s14.6,6.2,14.3,31c-0.2,21.1,12.1,26.2,12.1,26.2S221.2,209.7,216.6,201.2z M245.3,209.7
		c-21.1-4-14.5-24.3-18.6-41.2c-4.1-16.9-13.2-19.5-13.2-19.5s12.6,0.2,21.9,13.9c9.3,13.7,10.3,30.9,21.3,33
		c11,2.1,17.4-5.3,17.4-5.3S266.5,213.7,245.3,209.7z"/>
	<path d="M195.9,122.5c-10.6-6.5-22.3-11.5-34.7-14.6c4.6,9.5,14.4,16.1,25.7,16.1C190.1,124,193.1,123.5,195.9,122.5z"/>
</g>
<g id="Layer_2" class="st1">
	<g class="st2">
		<path d="M148.6,92.7c10.3,0,18.6-9.7,18.6-21.5c0-11.9-8.4-21.5-18.6-21.5c-10.3,0-18.6,9.7-18.6,21.5
			C130,83.1,138.3,92.7,148.6,92.7z"/>
		<path d="M147.4,0C66,0,0,66,0,147.4s66,147.4,147.4,147.4s147.4-66,147.4-147.4S228.8,0,147.4,0z M194.6,121.1v30.8
			c0,1.7-1.3,3-3,3c-1.7,0-3-1.3-3-3v-30.8c0-10.1-11.9-10.2-12.4-10.2h-12.7c-0.3,0-2.8,0-4.7-1.8c-0.9-0.9-2-2.5-2.1-5.2
			c0-1.7,1.3-3,3-3c1.6-0.1,3,1.3,3,3c0,0.6,0.1,0.8,0.2,0.9c0.1,0.1,0.5,0.2,0.5,0.2l12.8,0C182.6,104.9,194.6,108.3,194.6,121.1z
			 M178.1,137v14.4c0,1.7-1.3,3-3,3c-1.7,0-3-1.3-3-3V137c0-1.7,1.4-3,3-3C176.7,134,178.1,135.3,178.1,137z M148.6,43.7
			c13.6,0,24.7,12.4,24.7,27.6c0,15.2-11.1,27.6-24.7,27.6C135,98.8,124,86.4,124,71.2C124,56,135,43.7,148.6,43.7z M102.6,121.1
			c0-12.8,12.1-16.2,18.4-16.2h12.7c0.1,0,1.8-0.4,1.8-1.1c0-1.7,1.4-2.9,3.1-3c1.7,0,3,1.4,3,3.1c-0.1,4.3-3.9,6.7-7.5,7l-13,0
			c-1.3,0-12.4,0.4-12.4,10.2v31.4c0,1.7-1.4,3-3,3c-1.7,0-3-1.3-3-3V121.1z M125.2,136.7v15.8c0,1.7-1.4,3-3,3c-1.7,0-3-1.3-3-3
			v-15.8c0-1.7,1.3-3,3-3C123.8,133.7,125.2,135,125.2,136.7z M219.7,239H75.1c-1.7,0-3-1.3-3-3c0-1.7,1.3-3,3-3h144.6
			c1.7,0,3,1.4,3,3C222.7,237.6,221.4,239,219.7,239z M219.7,212.6H75.1c-1.7,0-3-1.3-3-3c0-1.7,1.3-3,3-3h144.6c1.7,0,3,1.4,3,3
			C222.7,211.3,221.4,212.6,219.7,212.6z M219.7,186.3H75.1c-1.7,0-3-1.3-3-3c0-1.7,1.3-3,3-3h144.6c1.7,0,3,1.4,3,3
			C222.7,184.9,221.4,186.3,219.7,186.3z"/>
	</g>
</g>
</svg>
