<?xml version="1.0" encoding="utf-8"?>
<!-- Generator: Adobe Illustrator 22.1.0, SVG Export Plug-In . SVG Version: 6.00 Build 0)  -->
<svg version="1.1" id="INST"
		 xmlns="http://www.w3.org/2000/svg" xmlns:xlink="http://www.w3.org/1999/xlink" x="0px" y="0px" viewBox="0 0 48 48"
		 style="enable-background:new 0 0 48 48;" xml:space="preserve">
	<style type="text/css">
		#INST .st0{fill:url(#SVGID_1_);}
		#INST .st1{fill:#FFFFFF;}
	</style>
	<radialGradient id="SVGID_1_" cx="13.9506" cy="47.8812" r="48.3893" gradientUnits="userSpaceOnUse">
		<stop  offset="0" style="stop-color:#FFD776"/>
		<stop  offset="0.2463" style="stop-color:#F3A554"/>
		<stop  offset="0.3793" style="stop-color:#F15C3C"/>
		<stop  offset="0.5394" style="stop-color:#D94867"/>
		<stop  offset="0.6995" style="stop-color:#C32F87"/>
		<stop  offset="0.9122" style="stop-color:#7D63A7"/>
		<stop  offset="0.9852" style="stop-color:#5C6CB3"/>
	</radialGradient>
	<path class="st0" d="M48,24c0,13.4-10.8,23.9-24,23.9V48C11.3,48,0,37.9,0,24v-0.1C0,11,10,0,24,0l0,0C36.5,0,48,10.8,48,24L48,24z"
		/>
	<path class="st1" d="M30.2,39.5H17.8c-4.9,0-8.9-4-8.9-8.9V17.4c0-4.9,4-8.9,8.9-8.9h12.5c4.9,0,8.9,4,8.9,8.9v13.3
		C39.1,35.5,35.1,39.5,30.2,39.5z M17.8,10.8c-3.6,0-6.6,3-6.6,6.6v13.3c0,3.6,3,6.6,6.6,6.6h12.5c3.6,0,6.6-3,6.6-6.6V17.4
		c0-3.6-3-6.6-6.6-6.6H17.8z"/>
	<path class="st1" d="M24,32.2c-4.5,0-8.2-3.7-8.2-8.2c0-2.2,0.8-4.2,2.3-5.8c1.5-1.6,3.6-2.5,5.7-2.5c0.1,0,0.2,0,0.2,0
		c2.6,0.1,4.7,0.9,6.2,2.5c1.4,1.5,2.1,3.5,2,5.8c0,2.2-0.9,4.3-2.4,5.8C28.3,31.3,26.2,32.2,24,32.2z M23.8,18.5
		c-1.4,0-2.7,0.6-3.7,1.6c-1,1-1.6,2.4-1.6,3.9c0,3,2.4,5.5,5.5,5.5c3,0,5.4-2.4,5.5-5.5c0-1.6-0.4-2.9-1.3-3.8
		c-0.9-1-2.4-1.6-4.2-1.6C23.9,18.5,23.9,18.5,23.8,18.5z"/>
</svg>
