<?xml version="1.0" encoding="utf-8"?>
<!-- Generator: Adobe Illustrator 22.1.0, SVG Export Plug-In . SVG Version: 6.00 Build 0)  -->
<svg version="1.1" id="LI"
	 xmlns="http://www.w3.org/2000/svg" xmlns:xlink="http://www.w3.org/1999/xlink" x="0px" y="0px" viewBox="0 0 48 48"
	 style="enable-background:new 0 0 48 48;" xml:space="preserve">
	<style type="text/css">
		#LI .st0{display:none;fill:url(#SVGID_1_);}
		#LI .st1{display:none;fill:#FFFFFF;}
		#LI .st2{display:none;fill:#36609F;}
		#LI .st3{fill:#0A6C9B;}
	</style>
	<radialGradient id="SVGID_1_" cx="13.9506" cy="47.8812" r="48.3893" gradientUnits="userSpaceOnUse">
		<stop  offset="0" style="stop-color:#FFD776"/>
		<stop  offset="0.2463" style="stop-color:#F3A554"/>
		<stop  offset="0.3793" style="stop-color:#F15C3C"/>
		<stop  offset="0.5394" style="stop-color:#D94867"/>
		<stop  offset="0.6995" style="stop-color:#C32F87"/>
		<stop  offset="0.9122" style="stop-color:#7D63A7"/>
		<stop  offset="0.9852" style="stop-color:#5C6CB3"/>
	</radialGradient>
	<path class="st0" d="M48,24c0,13.4-10.8,23.9-24,23.9V48C11.3,48,0,37.9,0,24v-0.1C0,11,10,0,24,0l0,0C36.5,0,48,10.8,48,24L48,24z"
		/>
	<path class="st1" d="M30.2,39.5H17.8c-4.9,0-8.9-4-8.9-8.9V17.4c0-4.9,4-8.9,8.9-8.9h12.5c4.9,0,8.9,4,8.9,8.9v13.3
		C39.1,35.5,35.1,39.5,30.2,39.5z M17.8,10.8c-3.6,0-6.6,3-6.6,6.6v13.3c0,3.6,3,6.6,6.6,6.6h12.5c3.6,0,6.6-3,6.6-6.6V17.4
		c0-3.6-3-6.6-6.6-6.6H17.8z"/>
	<path class="st1" d="M24,32.2c-4.5,0-8.2-3.7-8.2-8.2c0-2.2,0.8-4.2,2.3-5.8c1.5-1.6,3.6-2.5,5.7-2.5c0.1,0,0.2,0,0.2,0
		c2.6,0.1,4.7,0.9,6.2,2.5c1.4,1.5,2.1,3.5,2,5.8c0,2.2-0.9,4.3-2.4,5.8C28.3,31.3,26.2,32.2,24,32.2z M23.8,18.5
		c-1.4,0-2.7,0.6-3.7,1.6c-1,1-1.6,2.4-1.6,3.9c0,3,2.4,5.5,5.5,5.5c3,0,5.4-2.4,5.5-5.5c0-1.6-0.4-2.9-1.3-3.8
		c-0.9-1-2.4-1.6-4.2-1.6C23.9,18.5,23.9,18.5,23.8,18.5z"/>
	<path class="st2" d="M24,0C10.7,0,0,10.7,0,24c0,13.3,10.7,24,24,24c13.3,0,24-10.7,24-24C48,10.7,37.3,0,24,0z M29.1,24h-3.4
		c0,5.4,0,12,0,12h-5c0,0,0-6.6,0-12h-2.4v-4.2h2.4V17c0-2,0.9-5,5-5l3.7,0v4.1c0,0-2.2,0-2.7,0c-0.4,0-1.1,0.2-1.1,1.2v2.5h3.8
		L29.1,24z"/>
	<g>
		<path class="st3" d="M25.4,22.2L25.4,22.2C25.4,22.2,25.4,22.2,25.4,22.2L25.4,22.2z"/>
		<path class="st3" d="M24,0C10.7,0,0,10.7,0,24c0,13.3,10.7,24,24,24c13.3,0,24-10.7,24-24C48,10.7,37.3,0,24,0z M17.4,35.5h-5.1V20
			h5.1V35.5z M14.9,17.9L14.9,17.9c-1.8,0-2.9-1.2-2.9-2.7c0-1.5,1.2-2.7,2.9-2.7c1.8,0,2.8,1.2,2.9,2.7
			C17.8,16.7,16.7,17.9,14.9,17.9z M36,35.5h-5.1v-8.3c0-2.1-0.7-3.5-2.6-3.5c-1.4,0-2.3,1-2.6,1.9c-0.1,0.3-0.2,0.8-0.2,1.3v8.6
			h-5.1c0,0,0.1-14,0-15.5h5.1v2.2c0.7-1.1,1.9-2.6,4.6-2.6c3.4,0,5.9,2.2,5.9,7V35.5z"/>
	</g>
</svg>
