<?xml version="1.0" encoding="utf-8"?>
<!-- Generator: Adobe Illustrator 22.1.0, SVG Export Plug-In . SVG Version: 6.00 Build 0)  -->
<svg version="1.1" id="Layer_1" xmlns="http://www.w3.org/2000/svg" xmlns:xlink="http://www.w3.org/1999/xlink" x="0px" y="0px"
	 viewBox="0 0 46 32" style="enable-background:new 0 0 46 32;" xml:space="preserve">
<path d="M5.3,6.3c0.1,0,0.1,0,0.2,0c1.6-0.8,3.3-1.2,5.1-1.2c1,0,2.1,0.1,3.1,0.4c0.2,0.1,0.5-0.1,0.5-0.3c0.1-0.2-0.1-0.5-0.3-0.5
	c-1.1-0.3-2.2-0.5-3.3-0.5c-1.9,0-3.7,0.4-5.4,1.3C4.9,5.6,4.8,5.9,4.9,6.1C5,6.2,5.1,6.3,5.3,6.3z"/>
<path d="M3.4,7.6C3.6,7.5,3.6,7.2,3.5,7C3.3,6.8,3,6.8,2.9,7c-1.1,0.9-2.1,2-2.8,3.2c-0.1,0.2-0.1,0.5,0.1,0.6
	c0.1,0,0.1,0.1,0.2,0.1c0.1,0,0.3-0.1,0.4-0.2C1.5,9.5,2.4,8.5,3.4,7.6z"/>
<path d="M37.7,7.7c2,0,3.9,0.7,5.5,1.8c0.1,0.1,0.2,0.1,0.2,0.1c0.1,0,0.3-0.1,0.3-0.2c0.1-0.2,0.1-0.5-0.1-0.6
	c-1.8-1.2-3.8-1.9-6-1.9c-0.2,0-0.4,0.2-0.4,0.4C37.3,7.5,37.5,7.7,37.7,7.7z"/>
<path d="M37.6,9.1c-0.5,0-0.9,0-1.4,0.1C35.4,3.8,30.9,0,25.3,0c-4.8,0-9.1,3.1-10.4,7.7c-1.4-0.7-2.8-1-4.4-1C5.2,6.7,1,11,1,16.4
	c0,5.4,4.2,9.6,9.6,9.6h6.1c0.2,0,0.4-0.2,0.4-0.5c0-0.2-0.2-0.5-0.4-0.5h-6.1c-4.9,0-8.7-3.7-8.7-8.6c0-4.9,3.8-8.9,8.7-8.9
	c1.5,0,3.1,0.7,4.4,1.4C15.1,9,15.2,9,15.3,9c0.1-0.1,0.2-0.2,0.2-0.3C16.7,4.2,20.7,1,25.3,1c5.2,0,9.5,3.6,10,8.7
	c0,0.1,0.1,0.2,0.2,0.3c0.1,0.1,0.2,0.1,0.3,0.1c0.6-0.1,1.1-0.2,1.7-0.2c4.2,0,7.6,3.6,7.6,7.8S41.8,25,37.6,25h-4.5
	c-0.2,0-0.4,0.3-0.4,0.5c0,0.2,0.2,0.5,0.4,0.5h4.5c4.7,0,8.4-3.7,8.4-8.3C46,13,42.2,9.1,37.6,9.1z"/>
<path d="M34.1,15.5c0-1.4-1.1-2.5-2.5-2.5c-1.4,0-2.5,1.1-2.5,2.5c0,1.2,0.7,2.2,1.9,2.4V22h-7v-7.4c1.2-0.2,2-1.2,2-2.4
	c0-1.4-1.2-2.5-2.5-2.5c-1.4,0-2.5,1.1-2.5,2.5c0,1.2,0.8,2.2,2,2.4V22h-6v-2.7c1.2-0.2,1.9-1.2,1.9-2.4c0-1.4-1.1-2.5-2.5-2.5
	c-1.4,0-2.5,1.1-2.5,2.5c0,1.2,0.9,2.2,2.1,2.4v3.3c0,0.2,0.2,0.4,0.4,0.4H20v4.1c-1.2,0.2-2.1,1.2-2.1,2.4c0,1.4,1.2,2.5,2.5,2.5
	c1.4,0,2.5-1.1,2.5-2.5c0-1.2-0.8-2.2-2-2.4V23h6v2.1c-1.2,0.2-2,1.2-2,2.4c0,1.4,1.1,2.5,2.5,2.5c1.4,0,2.5-1.1,2.5-2.5
	c0-1.2-0.8-2.2-2-2.4V23h3.6c0.2,0,0.4-0.2,0.4-0.4V18C33.2,17.7,34.1,16.7,34.1,15.5z M21.9,12.2c0-0.9,0.7-1.6,1.6-1.6
	c0.9,0,1.6,0.7,1.6,1.6c0,0.9-0.7,1.6-1.6,1.6C22.6,13.8,21.9,13.1,21.9,12.2z M22.2,29.5c0,0.9-0.7,1.6-1.6,1.6s-1.7-0.7-1.7-1.6
	s0.8-1.6,1.7-1.6S22.2,28.6,22.2,29.5z M29.1,27.5c0,0.9-0.7,1.6-1.6,1.6c-0.9,0-1.6-0.7-1.6-1.6s0.7-1.6,1.6-1.6
	C28.4,25.9,29.1,26.6,29.1,27.5z M30,15.5c0-0.9,0.7-1.6,1.6-1.6c0.9,0,1.6,0.7,1.6,1.6s-0.7,1.6-1.6,1.6C30.7,17.1,30,16.4,30,15.5
	z M14.8,16.9c0-0.9,0.7-1.6,1.6-1.6c0.9,0,1.6,0.7,1.6,1.6c0,0.9-0.7,1.6-1.6,1.6C15.5,18.5,14.8,17.8,14.8,16.9z"/>
</svg>
