<?xml version="1.0" encoding="utf-8"?>
<!-- Generator: Adobe Illustrator 22.1.0, SVG Export Plug-In . SVG Version: 6.00 Build 0)  -->
<svg version="1.1" id="Layer_1" xmlns="http://www.w3.org/2000/svg" xmlns:xlink="http://www.w3.org/1999/xlink" x="0px" y="0px"
	 viewBox="0 0 42 38" style="enable-background:new 0 0 42 38;" xml:space="preserve">
<path d="M16.5,30h4c0.2,0,0.5-0.2,0.5-0.5c0-0.2-0.2-0.5-0.5-0.5h-4c-0.2,0-0.5,0.2-0.5,0.5C16.1,29.7,16.3,30,16.5,30z"/>
<path d="M6.9,15.9C6.9,15.9,7.1,16,7.2,16c0.1,0,0.2-0.1,0.3-0.2c0.2-0.2,0.1-0.5,0-0.6l-2.3-2.1l2.3-2.1c0.2-0.2,0.2-0.5,0-0.6
	c-0.2-0.2-0.4-0.2-0.6,0l-2.7,2.4C4,12.9,4,13,4,13.1c0,0.1,0.1,0.3,0.2,0.3L6.9,15.9z"/>
<path d="M25.5,15.8c0.1,0.1,0.2,0.2,0.3,0.2c0.1,0,0.2,0,0.3-0.1l2.7-2.4c0.1-0.1,0.2-0.2,0.2-0.3c0-0.1-0.1-0.3-0.2-0.3l-2.7-2.4
	c-0.2-0.2-0.5-0.1-0.6,0c-0.2,0.2-0.1,0.5,0,0.6l2.3,2.1l-2.3,2.1C25.4,15.3,25.4,15.6,25.5,15.8z"/>
<path d="M9.5,16h10c0.2,0,0.5-0.3,0.5-0.5c0-0.2-0.2-0.5-0.5-0.5h-10c-0.2,0-0.5,0.2-0.5,0.5C9.1,15.7,9.3,16,9.5,16z"/>
<path d="M21.4,15.9c0.1,0,0.1,0,0.2,0c0.2,0,0.3-0.1,0.4-0.3l2-4.8c0.1-0.2,0-0.5-0.2-0.6c-0.2-0.1-0.5,0-0.6,0.2l-2,4.8
	C21.1,15.6,21.2,15.8,21.4,15.9z"/>
<path d="M41.5,0H24.4C24.2,0,24,0.2,24,0.5V6H3.5C1.6,6,0,7.6,0,9.6v19.9C0,31.4,1.6,33,3.5,33h12.6c-0.2,0.8-0.6,3-1.3,4h-4.1
	c-0.2,0-0.5,0.3-0.5,0.5c0,0.2,0.2,0.5,0.5,0.5h13.5h2.4h15c0.2,0,0.5-0.2,0.5-0.5V0.5C42,0.2,41.8,0,41.5,0z M3.5,7h29.9
	C34.8,7,36,8.1,36,9.6V26H1V9.6C1,8.1,2.1,7,3.5,7z M1,29.4V27H36v2.4c0,1.4-1.2,2.6-2.6,2.6h-9.2c0,0,0,0,0,0c0,0,0,0,0,0h-7.6
	c0,0,0,0,0,0H3.5C2.1,32,1,30.9,1,29.4z M22.5,37c-0.7-1-1.1-3.2-1.3-4H24v4H22.5z M17,33h3.2c0.1,0.7,0.5,2.8,1.2,4h-5.6
	C16.5,35.8,16.9,33.7,17,33z M41,37H26.6H25v-4h8.4c1.9,0,3.6-1.7,3.6-3.6V9.6C37,7.6,35.3,6,33.4,6H25V1h16V37z"/>
</svg>
