<!-- Generated by IcoMoon.io -->
<svg version="1.1" xmlns="http://www.w3.org/2000/svg" width="32" height="32" viewBox="0 0 32 32">
<title>twitter</title>
<path fill="#2caae1" d="M16 0c-8.836 0-16 7.164-16 16 0 8.838 7.164 16 16 16s16-7.162 16-16c0-8.836-7.164-16-16-16zM22.362 12.738c0.007 0.141 0.010 0.281 0.010 0.424 0 4.338-3.302 9.34-9.34 9.34-1.855 0-3.579-0.543-5.032-1.475 0.258 0.029 0.518 0.045 0.783 0.045 1.539 0 2.953-0.523 4.076-1.404-1.435-0.028-2.648-0.977-3.065-2.28 0.2 0.037 0.405 0.059 0.617 0.059 0.3 0 0.59-0.041 0.864-0.115-1.5-0.303-2.633-1.629-2.633-3.219v-0.041c0.444 0.246 0.949 0.393 1.488 0.41-0.881-0.588-1.46-1.594-1.46-2.732 0-0.602 0.162-1.166 0.444-1.651 1.618 1.987 4.038 3.293 6.766 3.43-0.056-0.24-0.085-0.49-0.085-0.748 0-1.813 1.469-3.281 3.283-3.281 0.943 0 1.797 0.398 2.395 1.035 0.747-0.147 1.451-0.42 2.085-0.797-0.246 0.768-0.765 1.41-1.443 1.816 0.664-0.078 1.297-0.255 1.885-0.515-0.44 0.658-0.996 1.236-1.638 1.699z"></path>
</svg>
