<?xml version="1.0" encoding="utf-8"?>
<!-- Generator: Adobe Illustrator 19.0.0, SVG Export Plug-In . SVG Version: 6.00 Build 0)  -->
<svg version="1.1" id="Layer_1" xmlns="http://www.w3.org/2000/svg" xmlns:xlink="http://www.w3.org/1999/xlink" x="0px" y="0px"
	 viewBox="-254 381.4 86 79.5" style="enable-background:new -254 381.4 86 79.5;" xml:space="preserve">
<style type="text/css">
	.st0{fill:#FFFFFF;}
</style>
<g id="draak">
	<path class="st0" d="M-193.7,407.9c0-1.8,1.4-3.2,3.2-3.2c0.5,0,1.1,0.2,1.5,0.4c0.2-1,0.4-2.1,0.4-3.2l0,0c0-0.2,0-0.4,0-0.5
		c-7.6-3.9-13.3-11.1-14.6-20c-0.6,2.1-0.9,4.2-0.9,6.5c0,2.3,0.4,4.6,1,6.8h-0.1c-4.7-3.1-8.3-7.6-10.4-13
		c0.1,4.5,1.5,8.7,3.8,12.2c-0.2,0-0.5,0-0.7,0c-18.3,0-33.2,14.5-33.9,32.5c0.7-14.3,12.6-25.7,27.1-25.7
		c10.5,0,19.5,5.9,24.1,14.6c0.9-1.3,1.7-2.7,2.4-4.2C-192.4,410.9-193.7,409.5-193.7,407.9z M-202.6,396.5c3.2,0.8,6.2,2.1,9,3.8
		c-0.7,0.2-1.5,0.4-2.3,0.4C-198.9,400.7-201.4,399-202.6,396.5z"/>
	<g>
		<path class="st0" d="M-168,418.2c0,0,0.1-3.2-1.9-4c-2.7-1-4.1,1.5-7.5,0.6c-1.9-0.5-3.5-2.9-3.5-2.9s0.8,4.9,3.5,5.7
			c2.8,0.8,3.4-1.6,6.1-1.2C-169.4,416.8-168,418.2-168,418.2z"/>
		<path class="st0" d="M-173.4,418c0,0-1.6,1.9-4.5,1.4c-2.9-0.5-3.1-5-5.5-8.6c-2.4-3.6-5.7-3.6-5.7-3.6s2.4,0.7,3.4,5.1
			c1.1,4.4-0.7,9.6,4.8,10.7C-175.4,423.9-173.4,418-173.4,418z"/>
		<path class="st0" d="M-190.5,408c0,0,3.8,1.6,3.7,8c-0.1,5.5,3.1,6.8,3.1,6.8s-3.4,0.1-4.6-2.1c-1.2-2.2,0.1-4.3-0.3-7.6
			C-188.9,409.8-190.5,408-190.5,408z"/>
	</g>
</g>
<g id="rb2">
	<g>
		<path class="st0" d="M-254,429.8h7.9v5.6h0.1c1.5-3.8,5.6-6.5,9.7-6.5c0.6,0,1.3,0.1,1.8,0.3v7.7c-0.8-0.2-2-0.3-3-0.3
			c-6.1,0-8.2,4.4-8.2,9.7V460h-8.3V429.8z"/>
		<path class="st0" d="M-232.7,418.3h8.3v15.2h0.1c2.1-3.1,5.8-4.5,9.6-4.5c6,0,12.6,4.9,12.6,16c0,11.1-6.5,16-12.6,16
			c-4.5,0-8.2-1.3-9.9-4.7h-0.1v3.9h-7.9v-41.9H-232.7z M-217.5,435.2c-4.9,0-7.1,4.6-7.1,9.7c0,5,2.2,9.7,7.1,9.7s7.1-4.6,7.1-9.7
			C-210.4,439.9-212.6,435.2-217.5,435.2z"/>
		<path class="st0" d="M-202.4,460.1c0-4,1.8-7.7,4.9-10.3c2.7-2.3,5.7-3.9,8.1-5.4c2.4-1.5,4.1-3.1,4.1-5.2c0-2.4-1.6-3.9-4-3.9
			c-4,0-5.1,2.9-5.2,6.3h-7.1c-0.5-7.7,4.5-13,12.2-13c6.2,0,11.6,3.2,11.6,9.9c0,6-4.3,8.2-8.8,11c-2.4,1.5-3.6,2.2-5.6,4.2h14.8
			v6.4H-202.4L-202.4,460.1z"/>
	</g>
</g>
</svg>
