<?xml version="1.0" encoding="utf-8"?>
<!-- Generator: Adobe Illustrator 22.1.0, SVG Export Plug-In . SVG Version: 6.00 Build 0)  -->
<svg version="1.1" id="Layer_1" xmlns="http://www.w3.org/2000/svg" xmlns:xlink="http://www.w3.org/1999/xlink" x="0px" y="0px"
	 viewBox="0 0 155 24" style="enable-background:new 0 0 155 24;" xml:space="preserve">
<style type="text/css">
	.st0{fill:#FFFFFF;}
</style>
<path class="st0" d="M12.8,21c1.5-1.6,2.3-3.8,2.3-6.6c0-1.6-0.4-2.8-1.3-3.8c-0.9-0.9-2.1-1.4-3.6-1.4c-1.6,0-2.9,0.8-3.9,2.4
	c0.5-3,1-5.5,1.4-7.6c0-0.4,0.1-0.7,0.1-0.9c0-1-0.3-1.8-0.9-2.3C6.2,0.3,5.4,0,4.3,0c-1.1,0-2,0.4-2.7,1.3l0.5,0.4
	c0.5-0.6,1.1-0.9,1.8-1L0,24h0.7l3-2.1c0.7,1,1.8,1.5,3.3,1.5C9.3,23.4,11.3,22.6,12.8,21z M4.5,21.3c0.3-1.6,0.7-3.9,1.3-7h0.1
	c0-0.1,0.1-0.5,0.4-1.1c0.3-0.6,0.7-1.3,1.4-2c0.6-0.7,1.2-1.1,1.8-1.1c0.6,0,1,0.2,1.2,0.6c0.2,0.4,0.3,1.1,0.3,2.2
	c0,2.7-0.4,5-1.2,6.8C9,21.5,8,22.4,6.7,22.4C5.6,22.4,4.9,22,4.5,21.3L4.5,21.3z"/>
<path class="st0" d="M23.2,23.4c2.7,0,4.8-0.8,6.2-2.5c1.4-1.7,2.1-3.8,2.1-6.5c0-1.6-0.5-2.8-1.4-3.8c-1-0.9-2.3-1.4-4-1.4
	c-1.7,0-3.1,0.3-4.3,0.8c-1.1,0.5-2,1.2-2.6,2.2c-0.6,0.9-1,1.9-1.2,2.8c-0.2,1-0.4,2.2-0.4,3.6s0.5,2.5,1.4,3.4
	C20,22.9,21.4,23.4,23.2,23.4L23.2,23.4z M23,12.6c0.9-1.8,1.9-2.7,2.9-2.7c1.1,0,1.6,1,1.6,3c0,2.6-0.4,4.9-1.3,6.8
	c-0.9,1.9-1.8,2.9-2.9,2.9c-1.1,0-1.6-0.9-1.6-2.8C21.7,16.8,22.1,14.4,23,12.6z"/>
<path class="st0" d="M39.7,23.4c2.7,0,4.8-0.8,6.2-2.5c1.4-1.7,2.1-3.8,2.1-6.5c0-1.6-0.5-2.8-1.4-3.8c-1-0.9-2.3-1.4-4-1.4
	c-1.7,0-3.1,0.3-4.3,0.8c-1.1,0.5-2,1.2-2.6,2.2c-0.6,0.9-1,1.9-1.2,2.8c-0.2,1-0.4,2.2-0.4,3.6s0.5,2.5,1.4,3.4
	C36.5,22.9,37.9,23.4,39.7,23.4L39.7,23.4z M39.5,12.6c0.9-1.8,1.9-2.7,2.9-2.7c1.1,0,1.6,1,1.6,3c0,2.6-0.4,4.9-1.3,6.8
	c-0.9,1.9-1.8,2.9-2.9,2.9s-1.6-0.9-1.6-2.8C38.2,16.8,38.6,14.4,39.5,12.6z"/>
<path class="st0" d="M57.9,19c0.2,0.7,0.4,1.3,0.6,2c0.3,0.7,0.7,1.2,1.4,1.7c0.7,0.4,1.5,0.7,2.3,0.7s1.6-0.1,2.2-0.4
	c0.6-0.3,0.9-0.6,1.1-0.9L65,21.7c-0.3,0.5-0.7,0.7-1.3,0.7c-0.5,0-0.9-0.2-1.1-0.7s-0.4-1.1-0.5-1.8c-0.1-0.7-0.2-1.4-0.5-2.2
	c-0.2-0.7-0.7-1.3-1.4-1.8c-0.7-0.5-1.7-0.7-3-0.7c-0.2,0-0.5,0-0.9,0.1c1.3-3.1,3.2-4.8,5.4-5c-0.6,0.4-0.9,1-0.9,1.9
	c0,0.8,0.2,1.4,0.6,1.8c0.4,0.4,0.9,0.6,1.7,0.6c0.7,0,1.3-0.2,1.8-0.7c0.4-0.5,0.7-1.1,0.7-1.8s-0.3-1.4-0.8-1.9
	c-0.5-0.5-1.4-0.7-2.6-0.7c-1.3,0-2.4,0.4-3.5,1.2c-1.1,0.8-2,1.9-2.6,3.4c0.6-3.5,1.2-6.7,1.8-9.7c0-0.4,0.1-0.7,0.1-0.9
	c0-1-0.3-1.8-0.9-2.3C56.6,0.3,55.7,0,54.7,0c-1.1,0-2,0.4-2.7,1.3l0.5,0.4c0.5-0.6,1.1-0.9,1.8-1l-4,22.3h4.2l1.3-6.9
	C56.7,16.3,57.4,17.3,57.9,19L57.9,19z"/>
<path class="st0" d="M78.5,16.4c0.7,0,1.3-0.2,1.8-0.7c0.5-0.5,0.8-1.1,0.8-2c0-1.4-0.4-2.4-1.3-3.3c-0.9-0.8-2.1-1.2-3.8-1.2
	c-2.4,0-4.3,0.8-5.7,2.4c-1.4,1.6-2.1,3.8-2.1,6.6c0,1.6,0.5,2.8,1.5,3.8c1,0.9,2.4,1.4,4.3,1.4c1,0,1.9-0.2,2.8-0.5
	c0.8-0.3,1.5-0.7,1.9-1.1c0.4-0.4,0.8-0.9,1.2-1.5c0.4-0.6,0.6-1.1,0.6-1.5l-0.6-0.3c0,0.2-0.2,0.7-0.7,1.5
	c-0.3,0.4-0.6,0.8-0.9,1.2s-0.8,0.7-1.4,1c-0.6,0.3-1.3,0.4-2,0.4c-0.7,0-1.3-0.3-1.8-0.8c-0.5-0.5-0.7-1.3-0.7-2.4
	c0-3.1,0.5-5.4,1.4-7c0.9-1.6,2-2.3,3.3-2.3c1.2,0,2.1,0.4,2.5,1.2c-0.3-0.1-0.6-0.1-0.8-0.1c-0.7,0-1.3,0.3-1.8,0.8
	c-0.5,0.5-0.7,1.1-0.7,1.8c0,0.7,0.2,1.3,0.7,1.8C77.3,16.1,77.8,16.4,78.5,16.4z"/>
<path class="st0" d="M97.5,17.9c0.4-2.1,0.7-3.5,0.7-4.2c0-1.4-0.4-2.5-1.2-3.3c-0.8-0.8-1.9-1.2-3.3-1.2c-2,0-3.5,1.1-4.5,3.3
	l1.5-8.4c0-0.4,0.1-0.7,0.1-0.9c0-1-0.3-1.8-0.9-2.3C89.3,0.3,88.5,0,87.4,0c-1.1,0-2,0.4-2.7,1.3l0.5,0.4c0.5-0.6,1.1-0.9,1.8-1
	L83.1,23h4.3l1.2-6.7c0.5-1.9,1.1-3.4,1.8-4.4c0.7-1.1,1.5-1.6,2.3-1.6c1,0,1.5,0.5,1.5,1.5c0,0.7-0.2,2.1-0.6,4.2s-0.6,3.6-0.6,4.4
	c0,1.9,1.1,2.9,3.2,2.9c0.7,0,1.3-0.1,1.9-0.4c0.6-0.3,0.9-0.6,1.1-0.9l-0.5-0.4c-0.6,0.7-1.2,1-1.8,1C96.8,21.6,97,20,97.5,17.9z"
	/>
<path class="st0" d="M107.1,23.4c2.7,0,4.8-0.8,6.2-2.5c1.4-1.7,2.1-3.8,2.1-6.5c0-1.6-0.5-2.8-1.4-3.8c-1-0.9-2.3-1.4-4-1.4
	c-1.7,0-3.1,0.3-4.3,0.8c-1.1,0.5-2,1.2-2.6,2.2c-0.6,0.9-1,1.9-1.2,2.8c-0.2,1-0.4,2.2-0.4,3.6s0.5,2.5,1.4,3.4
	C103.9,22.9,105.3,23.4,107.1,23.4L107.1,23.4z M106.9,12.6c0.9-1.8,1.9-2.7,2.9-2.7c1.1,0,1.6,1,1.6,3c0,2.6-0.4,4.9-1.3,6.8
	c-0.9,1.9-1.8,2.9-2.9,2.9s-1.6-0.9-1.6-2.8C105.6,16.8,106,14.4,106.9,12.6z"/>
<path class="st0" d="M124.6,22.1l-0.5-0.4c-0.5,0.6-1.1,0.9-1.8,1l2.4-13.4l-0.5,0.1c-0.8,0.1-2.1,0.2-3.9,0.2h-1.5l-0.1,0.6h1.5
	l-1.2,6.4c-0.4,2.3-0.6,3.6-0.6,3.9c0,0.9,0.3,1.6,0.9,2.1c0.6,0.5,1.4,0.8,2.5,0.8C123.1,23.4,123.9,22.9,124.6,22.1L124.6,22.1z
	 M123.3,6.5c0.7,0,1.3-0.2,1.8-0.7c0.5-0.5,0.8-1.1,0.8-1.8s-0.3-1.3-0.8-1.8c-0.5-0.5-1.1-0.8-1.8-0.8c-0.7,0-1.3,0.3-1.8,0.8
	c-0.5,0.5-0.7,1.1-0.7,1.8s0.2,1.3,0.7,1.8C122,6.3,122.6,6.5,123.3,6.5z"/>
<path class="st0" d="M137.9,16.4c0.7,0,1.3-0.2,1.8-0.7c0.5-0.5,0.8-1.1,0.8-2c0-1.4-0.4-2.4-1.3-3.3c-0.9-0.8-2.1-1.2-3.8-1.2
	c-2.4,0-4.3,0.8-5.7,2.4c-1.4,1.6-2.1,3.8-2.1,6.6c0,1.6,0.5,2.8,1.5,3.8c1,0.9,2.4,1.4,4.3,1.4c1,0,1.9-0.2,2.8-0.5
	c0.8-0.3,1.5-0.7,1.9-1.1c0.4-0.4,0.8-0.9,1.2-1.5c0.4-0.6,0.6-1.1,0.6-1.5l-0.6-0.3c0,0.2-0.2,0.7-0.7,1.5
	c-0.3,0.4-0.6,0.8-0.9,1.2c-0.4,0.4-0.8,0.7-1.4,1c-0.6,0.3-1.3,0.4-2,0.4c-0.7,0-1.3-0.3-1.8-0.8c-0.5-0.5-0.7-1.3-0.7-2.4
	c0-3.1,0.5-5.4,1.4-7c0.9-1.6,2-2.3,3.3-2.3c1.2,0,2.1,0.4,2.5,1.2c-0.3-0.1-0.6-0.1-0.8-0.1c-0.7,0-1.3,0.3-1.8,0.8
	c-0.5,0.5-0.7,1.1-0.7,1.8c0,0.7,0.2,1.3,0.7,1.8S137.2,16.4,137.9,16.4z"/>
<path class="st0" d="M144.8,11.6c-1.4,1.6-2.1,3.8-2.1,6.6c0,1.6,0.5,2.8,1.5,3.8c1,0.9,2.4,1.4,4.3,1.4c1,0,1.9-0.2,2.8-0.5
	c0.8-0.3,1.5-0.7,1.9-1.1c0.4-0.4,0.8-0.9,1.2-1.5c0.4-0.6,0.6-1.1,0.6-1.5l-0.6-0.3c0,0.2-0.2,0.7-0.7,1.5
	c-0.3,0.4-0.6,0.8-0.9,1.2c-0.4,0.4-0.8,0.7-1.4,1c-0.6,0.3-1.3,0.4-2,0.4c-0.7,0-1.3-0.3-1.8-0.8c-0.5-0.5-0.7-1.3-0.7-2.4
	c0-0.5,0-1.2,0.1-2c2.6,0,4.6-0.4,6-1.2c1.4-0.8,2.1-1.9,2.1-3.4c0-2.4-1.5-3.6-4.5-3.6C148.1,9.2,146.2,10,144.8,11.6z M154,12.8
	c0,2.5-2.4,3.7-7.1,3.8c0.3-2.1,0.9-3.7,1.7-4.8c0.9-1.1,1.7-1.6,2.7-1.6c0.9,0,1.6,0.3,2.1,0.8C153.8,11.4,154,12,154,12.8
	L154,12.8z"/>
</svg>
