<?xml version="1.0" encoding="utf-8"?>
<!-- Generator: Adobe Illustrator 22.1.0, SVG Export Plug-In . SVG Version: 6.00 Build 0)  -->
<svg version="1.1" id="Layer_1" xmlns="http://www.w3.org/2000/svg" xmlns:xlink="http://www.w3.org/1999/xlink" x="0px" y="0px"
	 viewBox="0 0 86 79.5" style="enable-background:new 0 0 86 79.5;" xml:space="preserve">
<style type="text/css">
	.st0{fill:#77AD1A;}
	.st1{fill:#F18E00;}
</style>
<g id="draak">
	<path class="st0" d="M60.3,26.5c0-1.8,1.4-3.2,3.2-3.2c0.5,0,1.1,0.2,1.5,0.4c0.2-1,0.4-2.1,0.4-3.2l0,0c0-0.2,0-0.4,0-0.5
		C57.8,16.1,52.1,8.9,50.8,0c-0.6,2.1-0.9,4.2-0.9,6.5c0,2.3,0.4,4.6,1,6.8c0,0-0.1,0-0.1,0c-4.7-3.1-8.3-7.6-10.4-13
		c0.1,4.5,1.5,8.7,3.8,12.2c-0.2,0-0.5,0-0.7,0C25.2,12.5,10.3,27,9.6,45c0.7-14.3,12.6-25.7,27.1-25.7c10.5,0,19.5,5.9,24.1,14.6
		c0.9-1.3,1.7-2.7,2.4-4.2C61.6,29.5,60.3,28.1,60.3,26.5z M51.4,15.1c3.2,0.8,6.2,2.1,9,3.8c-0.7,0.2-1.5,0.4-2.3,0.4
		C55.1,19.3,52.6,17.6,51.4,15.1z"/>
	<g>
		<path class="st1" d="M86,36.8c0,0,0.1-3.2-1.9-4c-2.7-1-4.1,1.5-7.5,0.6c-1.9-0.5-3.5-2.9-3.5-2.9s0.8,4.9,3.5,5.7
			c2.8,0.8,3.4-1.6,6.1-1.2C84.6,35.4,86,36.8,86,36.8z"/>
		<path class="st1" d="M80.6,36.6c0,0-1.6,1.9-4.5,1.4c-2.9-0.5-3.1-5-5.5-8.6s-5.7-3.6-5.7-3.6s2.4,0.7,3.4,5.1
			c1.1,4.4-0.7,9.6,4.8,10.7C78.6,42.5,80.6,36.6,80.6,36.6z"/>
		<path class="st1" d="M63.5,26.6c0,0,3.8,1.6,3.7,8c-0.1,5.5,3.1,6.8,3.1,6.8s-3.4,0.1-4.6-2.1c-1.2-2.2,0.1-4.3-0.3-7.6
			C65.1,28.4,63.5,26.6,63.5,26.6z"/>
	</g>
</g>
<g id="rb2">
	<g>
		<path d="M0,48.4h7.9V54H8c1.5-3.8,5.6-6.5,9.7-6.5c0.6,0,1.3,0.1,1.8,0.3v7.7c-0.8-0.2-2-0.3-3-0.3c-6.1,0-8.2,4.4-8.2,9.7v13.7H0
			V48.4z"/>
		<path d="M21.3,36.9h8.3v15.2h0.1c2.1-3.1,5.8-4.5,9.6-4.5c6,0,12.6,4.9,12.6,16c0,11.1-6.5,16-12.6,16c-4.5,0-8.2-1.3-9.9-4.7
			h-0.1v3.9h-7.9V36.9z M36.5,53.8c-4.9,0-7.1,4.6-7.1,9.7c0,5,2.2,9.7,7.1,9.7c4.9,0,7.1-4.6,7.1-9.7
			C43.6,58.5,41.4,53.8,36.5,53.8z"/>
		<path d="M51.6,78.7c0-4,1.8-7.7,4.9-10.3c2.7-2.3,5.7-3.9,8.1-5.4c2.4-1.5,4.1-3.1,4.1-5.2c0-2.4-1.6-3.9-4-3.9
			c-4,0-5.1,2.9-5.2,6.3h-7.1c-0.5-7.7,4.5-13,12.2-13c6.2,0,11.6,3.2,11.6,9.9c0,6-4.3,8.2-8.8,11c-2.4,1.5-3.6,2.2-5.6,4.2h14.8
			v6.4L51.6,78.7L51.6,78.7z"/>
	</g>
</g>
</svg>
