<?xml version="1.0" encoding="utf-8"?>
<!-- Generator: Adobe Illustrator 22.1.0, SVG Export Plug-In . SVG Version: 6.00 Build 0)  -->
<svg version="1.1" id="Layer_1" xmlns="http://www.w3.org/2000/svg" xmlns:xlink="http://www.w3.org/1999/xlink" x="0px" y="0px"
	 viewBox="0 0 44 38" style="enable-background:new 0 0 44 38;" xml:space="preserve">
<path d="M27.9,31.9H2V8h36.8v15.4c0,0.3,0.2,0.5,0.5,0.5c0.3,0,0.5-0.2,0.5-0.5V8h1.5c0.3,0,0.5-0.2,0.5-0.5v-7
	c0-0.3-0.2-0.5-0.5-0.5H0.5C0.2,0,0,0.2,0,0.5v7C0,7.8,0.2,8,0.5,8H1v24.4c0,0.3,0.2,0.5,0.5,0.5h26.4c0.3,0,0.5-0.2,0.5-0.5
	C28.4,32.1,28.2,31.9,27.9,31.9z M1,1h39.8v6h-1.5H1.7H1V1z"/>
<path d="M3.5,6C3.8,6,4,5.8,4,5.5V4h7.6c0.3,0,0.5-0.2,0.5-0.5S11.8,3,11.6,3H3.5C3.2,3,3,3.2,3,3.5v2C3,5.8,3.2,6,3.5,6z"/>
<path d="M42.7,30.5l-7.3-7.3c0.9-2.3,0.5-4.4-1.1-6c-3.1-3.1-7.1-4.4-7.3-4.4c-0.2-0.1-0.4,0-0.5,0.1l-1,1c-0.1,0.1-0.1,0.2-0.1,0.3
	c0,0.1,0.1,0.3,0.1,0.3l3.3,3.3c0.5,0.5,0.8,1.1,0.8,1.8c0,0.7-0.3,1.3-0.8,1.8l-1.3,1.3c-0.5,0.5-1.1,0.8-1.8,0.8
	c-0.7,0-1.3-0.3-1.8-0.8l-3.3-3.3c-0.2-0.2-0.5-0.2-0.7,0l-1,1c-0.1,0.1-0.2,0.3-0.1,0.5c0.1,0.2,1.3,4.2,4.4,7.3
	c1.6,1.6,3.7,2,6,1.1l7.3,7.3c0.8,0.8,1.9,1.3,3.1,1.3c1.2,0,2.3-0.5,3.1-1.3l0.1-0.1C44.4,35,44.4,32.2,42.7,30.5z M42,36L42,36
	c-0.7,0.7-1.5,1-2.4,1c-0.9,0-1.7-0.4-2.4-1l-7.5-7.5c-0.1-0.1-0.2-0.1-0.3-0.1c-0.1,0-0.1,0-0.2,0c-2.1,0.9-3.8,0.7-5.2-0.7
	c-2.5-2.5-3.7-5.7-4.1-6.6l0.5-0.5l2.9,2.9c0.7,0.7,1.6,1,2.5,1c1,0,1.8-0.4,2.5-1l1.3-1.3c1.4-1.4,1.4-3.7,0-5l-2.9-2.9l0.5-0.5
	c1,0.3,4.2,1.6,6.6,4.1c1.4,1.4,1.6,3.2,0.7,5.2c-0.1,0.2,0,0.4,0.1,0.5l7.5,7.5C43.3,32.5,43.3,34.7,42,36z"/>
<path d="M34.6,27.9c-0.2-0.2-0.5-0.2-0.7,0c-0.2,0.2-0.2,0.5,0,0.7l4.6,4.6c0.1,0.1,0.2,0.1,0.3,0.1s0.3,0,0.3-0.1
	c0.2-0.2,0.2-0.5,0-0.7L34.6,27.9z"/>
<path d="M9,11.5c-0.2-0.2-0.5-0.2-0.7,0l-3.2,2.8C5,14.4,5,14.5,5,14.7S5,15,5.1,15.1l3.2,2.8C8.4,18,8.5,18,8.6,18
	c0.1,0,0.3-0.1,0.4-0.2c0.2-0.2,0.2-0.5,0-0.7l-2.8-2.5L9,12.2C9.2,12,9.2,11.7,9,11.5z"/>
<path d="M16.9,17.8c0.1,0.1,0.2,0.2,0.4,0.2c0.1,0,0.2,0,0.3-0.1l3.2-2.8c0.1-0.1,0.2-0.2,0.2-0.4s-0.1-0.3-0.2-0.4l-3.2-2.8
	c-0.2-0.2-0.5-0.2-0.7,0c-0.2,0.2-0.2,0.5,0,0.7l2.8,2.5l-2.8,2.5C16.7,17.3,16.7,17.6,16.9,17.8z"/>
<path d="M13.8,11.7l-2.3,5.6c-0.1,0.3,0,0.5,0.3,0.6c0.1,0,0.1,0,0.2,0c0.2,0,0.4-0.1,0.5-0.3l2.3-5.6c0.1-0.3,0-0.5-0.3-0.6
	C14.2,11.3,13.9,11.4,13.8,11.7z"/>
</svg>
