<?xml version="1.0" encoding="utf-8"?>
<!-- Generator: Adobe Illustrator 22.1.0, SVG Export Plug-In . SVG Version: 6.00 Build 0)  -->
<svg version="1.1" id="Layer_1" xmlns="http://www.w3.org/2000/svg" xmlns:xlink="http://www.w3.org/1999/xlink" x="0px" y="0px"
	 viewBox="0 0 190 16" style="enable-background:new 0 0 190 16;" xml:space="preserve">
<style type="text/css">
	.st0{fill:#0684C7;}
	.st1{fill:#FFFFFF;}
	.st2{fill:#EA0889;}
</style>
<g>
	<g id="XMLID_3_">
		<path id="XMLID_4_" class="st0" d="M0,0.4h3.7l4.2,12h0l4.1-12h3.7v15.3h-2.5V3.9h0L9,15.6H6.8L2.6,3.9h0v11.8H0V0.4z"/>
		<path id="XMLID_10_" class="st0" d="M48.7,0.4H61v2.3h-4.8v13h-2.7v-13h-4.8V0.4z"/>
		<path id="XMLID_12_" class="st0" d="M64.1,0.4h2.7v15.3h-2.7V0.4z"/>
		<path id="XMLID_14_" class="st0" d="M70,0.4h2.8l6.9,11.3h0V0.4h2.5v15.3h-2.8L72.6,4.4h-0.1v11.2H70V0.4z"/>
		<path id="XMLID_16_" class="st0" d="M98.6,15.6h-1.7l-0.4-1.8C95.1,15.5,93.8,16,92,16c-4.5,0-7.3-3.6-7.3-8c0-4.4,2.7-8,7.3-8
			c3.3,0,6.1,1.8,6.5,5.2h-2.6c-0.3-2-2-3-3.9-3c-3.3,0-4.6,2.9-4.6,5.8c0,2.9,1.4,5.8,4.6,5.8c2.7,0,4.2-1.6,4.3-4.2h-4v-2h6.5
			V15.6z"/>
		<path id="XMLID_18_" class="st1" d="M103.9,10.5c0,2.4,1.7,3.3,3.8,3.3c2.3,0,3.2-1.2,3.2-2.3c0-1.2-0.6-1.6-1.3-1.9
			c-1.1-0.4-2.4-0.7-4.5-1.3c-2.6-0.7-3.4-2.3-3.4-3.9c0-3.1,2.8-4.5,5.5-4.5c3.2,0,5.8,1.7,5.8,4.9h-2.7c-0.1-2-1.4-2.7-3.3-2.7
			c-1.2,0-2.8,0.4-2.8,2c0,1.1,0.7,1.7,1.8,2c0.2,0.1,3.6,0.9,4.4,1.2c2,0.6,3,2.3,3,3.9c0,3.4-3,4.8-6,4.8c-3.5,0-6.3-1.7-6.3-5.5
			H103.9z"/>
		<path id="XMLID_20_" class="st1" d="M116.3,0.4h10.9v2.3H119v4h7.7v2.2H119v4.5h8.4v2.3h-11.1V0.4z"/>
		<path id="XMLID_22_" class="st1" d="M130.1,0.4h2.7v13h7.7v2.3h-10.4V0.4z"/>
		<path id="XMLID_24_" class="st1" d="M142.9,0.4h10.9v2.3h-8.3v4h7.7v2.2h-7.7v4.5h8.4v2.3h-11.1V0.4z"/>
		<path id="XMLID_26_" class="st1" d="M167.2,5.2c-0.4-1.8-1.6-3-3.8-3c-3.3,0-4.6,2.9-4.6,5.8c0,2.9,1.4,5.8,4.6,5.8
			c2.4,0,3.7-1.8,3.9-4h2.6c-0.2,3.7-2.8,6.2-6.5,6.2c-4.5,0-7.3-3.6-7.3-8c0-4.4,2.7-8,7.3-8c3.4,0,6.1,1.9,6.4,5.2H167.2z"/>
		<path id="XMLID_28_" class="st1" d="M171.7,0.4H184v2.3h-4.8v13h-2.7v-13h-4.8V0.4z"/>
	</g>
	<rect id="XMLID_2_" x="19" y="0.3" class="st0" width="11.6" height="2.3"/>
	<rect id="XMLID_7_" x="19" y="6.8" class="st0" width="11.6" height="2.3"/>
	<rect id="XMLID_8_" x="19" y="13.4" class="st0" width="11.6" height="2.3"/>
	<rect id="XMLID_31_" x="34" y="0.3" class="st0" width="11.6" height="2.3"/>
	<rect id="XMLID_30_" x="34" y="6.8" class="st0" width="11.6" height="2.3"/>
	<rect id="XMLID_9_" x="34" y="13.4" class="st0" width="11.6" height="2.3"/>
	<g id="XMLID_36_">
		<path id="XMLID_37_" class="st0" d="M187.5,9.4c-0.4,0.1-0.7,0.4-0.7,0.9c0,0.8,0.7,1.1,1.4,1.1c0.7,0,1.3-0.3,1.3-1.1
			c0-0.6-0.4-0.9-0.9-0.9l0-0.6c0.8,0,1.4,0.7,1.4,1.5c0,1.1-0.8,1.7-1.9,1.7c-1,0-1.9-0.6-1.9-1.7c0-0.8,0.4-1.4,1.2-1.5L187.5,9.4
			z"/>
		<path id="XMLID_39_" class="st0" d="M188.1,4.8c1,0,1.9,0.6,1.9,1.7c0,1.1-0.8,1.7-1.9,1.7c-1,0-1.9-0.6-1.9-1.7
			C186.3,5.4,187.1,4.8,188.1,4.8z M188.1,7.6c0.7,0,1.3-0.3,1.3-1.1c0-0.8-0.7-1.1-1.4-1.1c-0.7,0-1.3,0.3-1.3,1.1
			S187.5,7.6,188.1,7.6z"/>
		<path id="XMLID_42_" class="st0" d="M186.4,4.1l0-0.9l2.8-1v0l-2.8-1l0-0.9l3.5,0l0,0.6l-2.7,0v0l2.7,1l0,0.5l-2.7,1v0l2.7,0
			l0,0.6L186.4,4.1z"/>
	</g>
	<rect id="XMLID_34_" x="186.9" y="13.3" class="st2" width="2.4" height="2.3"/>
</g>
</svg>
