<?xml version="1.0" encoding="utf-8"?>
<!-- Generator: Adobe Illustrator 22.1.0, SVG Export Plug-In . SVG Version: 6.00 Build 0)  -->
<svg version="1.0" xmlns="http://www.w3.org/2000/svg" xmlns:xlink="http://www.w3.org/1999/xlink" x="0px" y="0px"
	 viewBox="0 0 177.8 30" style="enable-background:new 0 0 177.8 30;" xml:space="preserve">
<style type="text/css">
	.st0{fill:#EA0A8E;}
	.st1{display:none;}
	.st2{display:inline;}
	.st3{fill-rule:evenodd;clip-rule:evenodd;fill:#273285;}
</style>
<g id="T-Mobile">
	<g>
		<path class="st0" d="M0,19.5v-6h6v6H0z"/>
		<path class="st0" d="M14.3,23.1c0,1.9,0.3,3.1,0.8,3.7c0.5,0.5,1.3,0.8,2.4,0.9c0.3,0,0.9,0,1.7,0v1.7H4.8v-1.7
			c1.2,0,2-0.1,2.6-0.2c1.1-0.2,1.8-0.9,2.1-1.9c0.2-0.6,0.2-1.4,0.2-2.5V1.4C7.2,1.5,5.3,2.3,4,3.8c-1.3,1.5-2.1,3.8-2.4,6.8
			L0,10.4L0.3,0h23.4L24,10.4l-1.6,0.3c-0.3-3.1-1.1-5.3-2.4-6.8c-1.4-1.5-3.3-2.4-5.8-2.4V23.1z"/>
		<path class="st0" d="M18.1,19.5v-6h6v6H18.1z"/>
	</g>
	<path class="st0" d="M36,19.5v-6h6v6H36z"/>
	<g>
		<g>
			<path class="st0" d="M76.2,29.4h-1.3L67.4,3.7v18.6c0,1.9,0.1,3,0.2,3.6C68,27.3,69,28,70.5,28h0.6v1.4h-8.8V28H63
				c0.6,0,1.2-0.2,1.7-0.7c0.5-0.4,0.8-1,0.9-1.9c0.1-0.6,0.1-1.7,0.1-3.3V5.8c0-1,0-1.6-0.1-1.9c-0.2-0.7-0.5-1.1-1.1-1.3
				c-0.3-0.1-0.8-0.2-1.5-0.2h-0.8V1.1h8.2l6.1,20.8l6.2-20.8h8.3v1.3h-0.6c-1.1,0-1.8,0.2-2.2,0.7c-0.3,0.3-0.5,0.7-0.5,1.2
				c-0.1,0.6-0.1,1.4-0.1,2.4v17.2c0,1.4,0.1,2.4,0.2,2.9c0.3,0.9,1.2,1.3,2.7,1.3h0.6v1.4H80.4V28h0.4c1.1,0,1.8-0.2,2.3-0.6
				c0.3-0.3,0.5-0.7,0.5-1.2c0.1-0.6,0.1-1.4,0.1-2.3V3.7L76.2,29.4z"/>
			<path class="st0" d="M100.1,9.2c2.6,0,4.8,1,6.4,3.1c1.4,1.8,2.2,4.2,2.2,7.2c0,3-0.7,5.4-2.2,7.3c-1.6,2.1-3.8,3.1-6.6,3.1
				c-2.6,0-4.7-1-6.3-3.1c-1.4-1.8-2.2-4.3-2.2-7.2c0-3,0.7-5.4,2.2-7.2C95.3,10.3,97.5,9.2,100.1,9.2z M100.1,10.6
				c-1,0-1.8,0.4-2.6,1.2c-1.3,1.3-1.9,3.8-1.9,7.6c0,3.1,0.4,5.5,1.2,7.1c0.7,1.4,1.8,2.1,3.3,2.1c3,0,4.5-3,4.5-9.1
				c0-2.8-0.3-4.9-1-6.4c-0.4-0.9-1-1.6-1.8-2.1C101.3,10.8,100.7,10.6,100.1,10.6z"/>
			<path class="st0" d="M115.8,12.6c0.4-0.8,0.8-1.5,1.4-1.9c1-0.8,2.3-1.3,3.6-1.3c2,0,3.7,0.7,5,2.2c1.7,1.9,2.5,4.4,2.5,7.7
				c0,3.1-0.8,5.6-2.3,7.7c-1.4,1.9-3.3,2.9-5.6,2.9c-1.3,0-2.4-0.3-3.5-1c-0.2-0.1-0.7-0.5-1.4-1.1c-0.3-0.2-0.5-0.3-0.7-0.3
				c-0.2,0-0.5,0.2-0.8,0.7c-0.3,0.4-0.6,0.8-0.9,1.4h-1.4c0.1-0.4,0.2-0.6,0.2-0.7c0.1-0.6,0.2-1.7,0.2-3.5V5.8
				c0-1.5-0.2-2.5-0.5-2.9c-0.3-0.3-0.8-0.5-1.6-0.5h-0.3V1.1l6.1-0.3V12.6z M120.3,10.9c-0.9,0-1.8,0.4-2.6,1.1
				c-1.5,1.4-2.2,3.8-2.2,7.4c0,2.8,0.4,4.9,1.1,6.4c0.4,0.8,0.9,1.4,1.6,1.9c0.6,0.4,1.2,0.6,2,0.6c2.8,0,4.2-3,4.2-9
				c0-2.7-0.4-4.8-1.1-6.3C122.6,11.6,121.6,10.9,120.3,10.9z"/>
			<path class="st0" d="M136.3,9.6v15.1c0,1.6,0.2,2.5,0.5,2.9c0.3,0.3,0.8,0.5,1.6,0.5h0.7v1.3h-9.3v-1.3h0.7
				c0.8,0,1.3-0.2,1.6-0.5c0.3-0.4,0.5-1.4,0.5-2.9V14.6c0-1.5-0.2-2.5-0.5-2.9c-0.3-0.3-0.8-0.5-1.6-0.5h-0.5V9.9L136.3,9.6z
				 M134.2,0.9c0.6,0,1.2,0.2,1.6,0.7c0.5,0.5,0.7,1,0.7,1.6c0,0.6-0.2,1.2-0.7,1.6c-0.5,0.5-1,0.7-1.7,0.7c-0.6,0-1.2-0.2-1.6-0.7
				c-0.5-0.5-0.7-1-0.7-1.6c0-0.7,0.2-1.2,0.7-1.7C133,1.1,133.5,0.9,134.2,0.9z"/>
			<path class="st0" d="M147,0.8v23.9c0,1.5,0.2,2.5,0.5,2.9c0.3,0.3,0.8,0.5,1.6,0.5h0.7v1.3h-9.3v-1.3h0.7c0.8,0,1.3-0.2,1.6-0.5
				c0.3-0.4,0.5-1.4,0.5-2.9V5.8c0-1.5-0.2-2.5-0.5-2.9c-0.3-0.3-0.8-0.5-1.6-0.5h-0.5V1.1L147,0.8z"/>
			<path class="st0" d="M166.8,19.5h-11.6c0,2.7,0.3,4.8,0.9,6.1c0.8,1.9,2.1,2.8,4,2.8c1.5,0,2.7-0.6,3.7-1.7
				c0.5-0.6,1.1-1.5,1.6-2.6l1.3,0.7c-1.8,3.6-4.2,5.4-7.2,5.4c-2.2,0-4.1-0.8-5.5-2.3c-1.8-1.9-2.7-4.6-2.7-8.2
				c0-3.3,0.9-5.9,2.7-7.9c1.4-1.6,3.1-2.3,5-2.3c2.9,0,5.1,1.5,6.6,4.4C166.2,15.2,166.7,17.2,166.8,19.5z M162.8,18
				c0-1.7-0.2-3.1-0.6-4.3c-0.7-2-1.7-3-3.2-3c-1.6,0-2.8,1.2-3.5,3.6c-0.3,1-0.4,2.2-0.4,3.6H162.8z"/>
		</g>
		<path class="st0" d="M53.9,19.5v-6h6v6H53.9z"/>
		<path class="st0" d="M171.9,19.5v-6h6v6H171.9z"/>
	</g>
</g>
<g id="Lavazza" class="st1">
	<g class="st2">
		<path class="st3" d="M-446.1,51l12-51.7h18.3l-7.9,36.3h10.1l-3,16.2L-446.1,51L-446.1,51z M-411.7,52.2l11.5-53h27.3l1.9,53
			h-13.8l-1.5-9h-7.9l-2.6,9H-411.7L-411.7,52.2z M-392.7,30.6h6.7l-1.5-18.8L-392.7,30.6L-392.7,30.6z M-363.7,0v52.5h28L-322.2,0
			h-17.5l-6.9,32.9V0.1L-363.7,0L-363.7,0z M-327.8,52.1l17.6-74.6h27.9l17.9,74.6h-20.5l-1.8-11.5H-305l-0.4,11.5H-327.8
			L-327.8,52.1z M-300.9,23.3h10.1l-4.9-28.8L-300.9,23.3L-300.9,23.3z M-270.3-0.7l3.4,17l11.5,0.4l-4.1,35.4h32.8l-3-15.5h-10.1
			l3.7-37.3H-270.3L-270.3-0.7z M-232.6-0.4l2.6,15.9h11.3l-2.7,36h31.3l-1.9-15.1h-9.7l3-36.1L-232.6-0.4L-232.6-0.4z M-186-0.4
			l-0.4,52.4h16.4v-8.5h6.7l1.9,8.5h15.3l-10.5-52.4H-186L-186-0.4z M-171.4,31.4h6.7l-4.8-18.4L-171.4,31.4L-171.4,31.4z"/>
	</g>
</g>
</svg>
